<svg height="192.838" width="192.907" xmlns="http://www.w3.org/2000/svg"><path d="m272.42 646.61q-.063-.142-.204-.425-.267-.66-.267-.784.03-.44.45-.44.31 0 .74.9.06.13.19.22.42.44-.13.74-.5.3-.79-.2zm-5.164-13.483q.08-.565-.03-1.224.94.188 1.773.88.5.266.23.736-.27.48-.74.15-.33-.17-.6-.32-.27-.14-.65-.24zm6.514 10.688q-.455-.314-.094-.753.376-.36.832-.063.957.62 1.02 1.64-.016.52-.612.48-.565-.05-.55-.58-.125-.51-.596-.74zm-3.955-7.815-.346-.173q-.47-.19-.3-.69.19-.472.72-.315 1.85.675 2.56 2.48.11.518-.38.706-.49.157-.66-.345-.13-.267-.19-.345-.17.14-.46.188-.96.157-1.12-.848-.05-.345.15-.66z" fill="#fff"/><path d="m192.734 96.423a96.29 96.29 0 1 1 -192.577 0 96.29 96.29 0 1 1 192.577 0z" fill="#ffab40"/><path d="m38.837 78.675q.604.928.465 1.95-.465 2.97-3.296 2.506-.836-.13-1.347-.55-.19.23-.56 1.02-.51 1.49-1.95 1.02-1.44-.55-1.12-2.09 2.09-5.34 7.56-7.33 1.58-.46 2.09.93.55 1.49-.84 2.04-.28.14-.51.24-.24.1-.51.28zm-13.787 22.143q-1.346.835-1.624 2.228.046 1.532-1.44 1.67-1.624.187-1.67-1.39.185-3.065 2.738-4.876 1.207-.974 2.228.186 1.022 1.253-.232 2.182zm31.52-37.833q7.288.464 13.51 3.76 6.22 3.296 10.583 8.448 3.064 3.62 5.756 8.728 2.69 5.11 4.36 10.82 1.85 6.64 2.32 13.93.46 7.29.51 13.56v10.12h-57.1q-.42 0-.42-2.27 0-2.27.32-3.66.18-1.11.88-3.15.7-2.04 2.32-4.96.74-1.48 3.53-4.32 2.78-2.83 6.4-6.64 2.09-2.13 3.25-5.38 1.16-3.25 1.02-5.9-1.72 1.4-3.76 2.28-9.84 3.53-14.25 10.22-.33.42-2.09 3.76-.93 1.76-1.58 2.41-.88.88-2.55.98-2.6.14-4.04-2.51-1.95.56-3.48.468-2.6-.974-3.76-2.09-2.37-2.365-3.07-4.733-.7-2.36-.74-5.1 0-3.9 4.82-10.304 5.67-7.39 6.04-11.24 0-1.67.32-3.76.28-1.44 1.16-2.786.6-.93.79-1.254.18-.328.79-1.07.41-.56.69-.838.28-.28.69-.84.51-.603 1.3-1.392-2.46-6.775-2-13.97 9.24 3.293 15.51 10.35 1.53-5.25 6.03-8.5 3.714 2.6 5.9 6.87zm31.427 66.057q-.046 0 .093-2.507.14-2.506.14-5.477.046-5.803 0-11.977-.047-6.17-1.672-12.39-1.578-5.94-3.48-10.12-1.905-4.17-4.133-7.29-3.342-5.01-9.098-8.49-5.757-3.48-12.023-4.55.417 2.28.37 4.46-.092 1.67-1.577 1.67-1.718 0-1.532-1.67.14-6.13-4.364-10.49-3.52 3.72-3.8 8.64-.09 1.63-1.67 1.44-1.48-.05-1.48-1.72l.1-.37q-1.9.61-3.99 1.72-1.35.93-2.18-.46-.84-1.39.74-2.18 2-1.02 3.02-1.53-3.99-4.08-9.1-6.59.56 6.45 3.53 12.21.79 1.21-.37 2.14-1.3 1.02-2.18-.32-.32-.46-.93-1.67-.97.98-1.3 1.44-.32.42-1.11 1.86-.79 1.44-1.2 2.37-.42 1.16-.37 1.86.05.7.14 1.63-.42 2.74-1.86 5.15-1.44 2.42-3.76 5.9-2.18 3.35-3.34 5.02-1.16 1.67-1.76 4.27-.42 1.58 0 3.806.42 2.23 1.81 3.53 2.14 2.18 4.13 1.994.65 0 1.72-.51 1.07-.51 1.72-1.95 1.21-2.65 2-2.65 1.16 0 1.26 1.3 0 .28-.74 2.32-.41.93-1.11 1.95-.88 1.21-.79 1.02.74 2.65 2.46.93.51-.51 1.16-1.9.65-1.39 2.04-3.76 1.63-2.74 3.49-4.46 1.85-1.72 3.29-2.787.84-.6 2.048-1.39 1.205-.79 3.25-1.625 1.62-.65 3.57-1.58 1.95-.924 3.53-2.46 2.137-2.09 3.297-5.15.606-1.71.467-4.22-.415-1.58 1.58-1.58 1.486 0 1.67 1.536 0 5.25-2.97 9.567.976 2.97.51 6.5-.42 2.83-1.95 6.04-1.53 3.21-6.31 7.2-9.61 7.98-9.1 16.43h48.117zm72.731-18.986q-.185-.418-.603-1.254-.79-1.95-.79-2.32.094-1.3 1.347-1.3.928 0 2.182 2.645.186.372.557.65 1.26 1.3-.37 2.182-1.48.88-2.32-.61zm-27.388-17.223q-3.25-4.27-3.203-9.516.186-1.532 1.764-1.532 2.14 0 1.68 1.58-.14 2.552.51 4.223 1.07 2.646 2.37 3.946.7 1.392-.83 2.042-1.48.697-2.27-.743zm12.116-22.653q.232-1.67-.093-3.62 2.785.556 5.246 2.6 1.48.788.69 2.18-.79 1.44-2.18.465-.98-.51-1.77-.93-.79-.417-1.91-.695zm-43.497 58.862q.04 0-.1-2.507-.14-2.506-.14-5.477-.05-5.803 0-11.977.04-6.17 1.67-12.39 1.58-5.94 3.48-10.12 1.9-4.17 4.13-7.29 3.34-5.01 9.1-8.49 5.75-3.48 12.02-4.55-.19 1.07-.14 2.19.04 1.12 0 2.14-4.51 1.54-8.5 3.81-4 2.28-5.85 4.92-2.23 3.07-4.13 7.25-1.91 4.18-3.48 10.17-1.58 6.18-1.63 12.35-.05 6.17-.05 12.02 0 2.93.14 5.43.14 2.51 0 2.56h-6.55zm31.42-66.057q-7.29.464-13.51 3.76-6.22 3.296-10.59 8.448-3.07 3.62-5.76 8.728-2.7 5.11-4.37 10.82-1.86 6.64-2.32 13.93-.47 7.29-.51 13.56v10.12h57.1q.41 0 .41-2.27 0-2.27-.33-3.66-.19-1.11-.88-3.15-.7-2.04-2.32-4.96-.75-1.48-3.53-4.32-2.78-2.84-6.41-6.64-2.09-2.13-3.25-5.38-1.16-3.25-1.02-5.9 1.71 1.4 3.76 2.28 9.84 3.53 14.25 10.22.32.42 2.09 3.76.93 1.76 1.58 2.41.88.88 2.55.98 2.6.14 4.04-2.51 1.95.56 3.48.468 2.6-.974 3.76-2.09 2.37-2.365 3.06-4.733.7-2.36.74-5.1 0-3.9-4.83-10.304-5.66-7.38-6.04-11.236 0-1.67-.327-3.76-.28-1.44-1.16-2.784-.6-.93-.79-1.257-.18-.32-.79-1.064-.413-.558-.69-.837-.28-.28-.697-.83-.51-.602-1.3-1.39 2.46-6.77 1.99-13.97-9.238 3.3-15.504 10.36-1.53-5.25-6.03-8.5-3.715 2.6-5.897 6.87zm31.33 38.808q-1.35-.93-.28-2.228 1.11-1.068 2.46-.186 2.83 1.85 3.02 4.87-.05 1.53-1.81 1.44-1.68-.14-1.63-1.72-.37-1.49-1.77-2.18zm-11.69-23.118-1.03-.51q-1.39-.558-.88-2.043.55-1.393 2.13-.93 5.47 1.998 7.56 7.336.32 1.532-1.12 2.09-1.44.463-1.95-1.022-.37-.79-.56-1.022-.51.418-1.35.557-2.83.47-3.3-2.5-.14-1.02.46-1.95z"/><g font-family="Helvetica" font-size="11.834" font-weight="bold" letter-spacing="0" transform="matrix(2.95767 0 0 2.95767 -685.523 -2254.035)" word-spacing="0"><text x="250.288" y="818.456"><tspan x="250.288" y="818.456">C</tspan></text><text writing-mode="lr" x="269.627" y="818.456"><tspan x="269.627" y="818.456">T</tspan></text></g></svg>